<?xml version="1.0" standalone="no"?>
<!DOCTYPE svg PUBLIC "-//W3C//DTD SVG 20010904//EN"
 "http://www.w3.org/TR/2001/REC-SVG-20010904/DTD/svg10.dtd">
<svg version="1.0" xmlns="http://www.w3.org/2000/svg"
 width="1024.000000pt" height="1024.000000pt" viewBox="0 0 1024.000000 1024.000000"
 preserveAspectRatio="xMidYMid meet">
<metadata>
Created by potrace 1.14, written by Peter Selinger 2001-2017
</metadata>
<g transform="translate(0.000000,1024.000000) scale(0.100000,-0.100000)"
fill="#000000" stroke="none">
<path d="M1590 10225 c-125 -18 -149 -23 -215 -40 -94 -25 -219 -66 -229 -76
-6 -5 -16 -9 -24 -9 -8 0 -48 -17 -90 -39 -393 -198 -671 -476 -848 -845 -64
-135 -88 -198 -125 -340 -61 -227 -58 -18 -57 -3751 0 -1979 4 -3454 9 -3500
17 -153 71 -376 114 -470 7 -16 21 -50 31 -75 31 -77 114 -221 185 -321 176
-247 404 -438 684 -574 204 -99 368 -146 610 -175 39 -5 1611 -8 3495 -9 3628
0 3496 -1 3695 44 470 108 895 412 1143 817 39 63 105 187 107 198 0 3 3 10 7
15 12 19 67 170 87 240 24 83 48 204 59 295 4 36 7 1627 7 3535 0 2831 -2
3483 -13 3540 -38 201 -71 317 -128 451 -61 143 -167 318 -267 442 -63 78
-255 257 -344 321 -92 65 -283 170 -388 213 -96 39 -269 86 -380 104 -27 4
-57 10 -65 13 -8 3 -1581 6 -3495 7 -2762 1 -3498 -1 -3565 -11z"/>
</g>
</svg>
