<?xml version="1.0" encoding="UTF-8" standalone="no"?>
<!-- Created with Inkscape (http://www.inkscape.org/) -->

<svg
   width="329.82257mm"
   height="24.614973mm"
   viewBox="0 0 329.82257 24.614973"
   version="1.1"
   id="svg5"
   xml:space="preserve"
   inkscape:version="1.2.1 (9c6d41e410, 2022-07-14)"
   sodipodi:docname="fitno-logo.svg"
   xmlns:inkscape="http://www.inkscape.org/namespaces/inkscape"
   xmlns:sodipodi="http://sodipodi.sourceforge.net/DTD/sodipodi-0.dtd"
   xmlns="http://www.w3.org/2000/svg"
   xmlns:svg="http://www.w3.org/2000/svg"><sodipodi:namedview
     id="namedview7"
     pagecolor="#ffffff"
     bordercolor="#000000"
     borderopacity="0.25"
     inkscape:showpageshadow="2"
     inkscape:pageopacity="0.0"
     inkscape:pagecheckerboard="0"
     inkscape:deskcolor="#d1d1d1"
     inkscape:document-units="mm"
     showgrid="false"
     showguides="true"
     inkscape:zoom="1.5625561"
     inkscape:cx="973.08505"
     inkscape:cy="188.15324"
     inkscape:window-width="1858"
     inkscape:window-height="1057"
     inkscape:window-x="54"
     inkscape:window-y="-8"
     inkscape:window-maximized="1"
     inkscape:current-layer="layer1" /><defs
     id="defs2"><style
       id="style1684">.cls-1{fill:#231f20;}.cls-2{fill:#cddc29;}</style></defs><g
     inkscape:label="Layer 1"
     inkscape:groupmode="layer"
     id="layer1"
     transform="translate(-481.83009,-31.241143)"><g
       id="Layer_1-2"
       data-name="Layer 1"
       transform="matrix(0.50520311,0,0,0.50520311,368.88724,-214.74829)"
       style="fill:#94d82d;fill-opacity:1"><path
         class="cls-2"
         d="m 234.61,495.8 v 12.3 h 31.1 q 4.5,-0.21 4.64,3.93 v 0.43 c -0.09,2.76 -1.64,4.08 -4.64,3.93 h -31.1 v 14.09 c 0.09,3.1 -1.36,4.64 -4.36,4.64 H 228 c -3,0 -4.46,-1.54 -4.36,-4.64 v -38.4 a 3.93,3.93 0 0 1 4.65,-4.64 h 39.25 c 3,-0.15 4.57,1.17 4.71,3.93 v 0.5 q -0.21,4.15 -4.71,3.93 z"
         id="path1690"
         style="fill:#94d82d;fill-opacity:1" /><path
         class="cls-2"
         d="m 283.65,530.48 v -38.4 q -0.13,-4.63 4.36,-4.64 h 2.29 c 3,0 4.46,1.55 4.36,4.64 v 38.4 c 0.1,3.1 -1.36,4.64 -4.36,4.64 H 288 c -3,0 -4.44,-1.54 -4.35,-4.64 z"
         id="path1692"
         style="fill:#94d82d;fill-opacity:1" /><path
         class="cls-2"
         d="m 327.69,496.37 h -17.8 c -3,0.15 -4.55,-1.19 -4.65,-4 v -0.93 c 0.1,-2.81 1.65,-4.15 4.65,-4 h 46.54 c 3,-0.15 4.55,1.19 4.65,4 v 0.93 c -0.1,2.81 -1.65,4.15 -4.65,4 H 338.7 v 34.11 c 0.1,3.1 -1.38,4.64 -4.43,4.64 h -2.22 c -3.05,0 -4.5,-1.54 -4.36,-4.64 z"
         id="path1694"
         style="fill:#94d82d;fill-opacity:1" /><path
         class="cls-2"
         d="m 424.64,527.12 -0.22,-35 q -0.21,-4.63 4.29,-4.64 h 1.93 q 4.5,0 4.29,4.64 v 38.4 a 3.93,3.93 0 0 1 -4.65,4.64 h -7.93 a 10.4,10.4 0 0 1 -4.33,-0.6 10.05,10.05 0 0 1 -3.32,-2.83 l -32.53,-36 0.21,34.82 c 0.15,3.1 -1.28,4.64 -4.29,4.64 H 376 c -3,0 -4.39,-1.54 -4.29,-4.64 v -38.4 a 3.93,3.93 0 0 1 4.65,-4.64 h 7.79 a 10.22,10.22 0 0 1 4.33,0.61 10.5,10.5 0 0 1 3.39,2.82 z"
         id="path1696"
         style="fill:#94d82d;fill-opacity:1" /><path
         class="cls-2"
         d="m 487.05,486.94 a 70.06,70.06 0 0 1 13.94,1 13.07,13.07 0 0 1 7,3.72 q 2.85,3.21 3.5,10.08 0.28,2.92 0.29,10.08 0,8.94 -1,13.12 a 12.71,12.71 0 0 1 -3.75,6.61 q -3.64,3.21 -11.59,3.72 -3.93,0.35 -20.51,0.35 a 109.7,109.7 0 0 1 -13.12,-0.57 21.56,21.56 0 0 1 -7.19,-2.07 10.57,10.57 0 0 1 -5,-6.33 q -1.4,-4.32 -1.39,-13.83 0,-10.8 0.64,-14.23 1.71,-9.51 12.58,-10.94 5.36,-0.7 25.6,-0.71 z m -6.79,9 h -5.65 c -1.24,0 -2.72,0.06 -4.43,0.17 l -3.61,0.25 A 9.87,9.87 0 0 0 464,497 a 9.56,9.56 0 0 0 -2,0.89 7.25,7.25 0 0 0 -1.22,1.47 4.44,4.44 0 0 0 -0.86,1.89 c 0,0.5 -0.15,1.4 -0.32,2.68 a 25.45,25.45 0 0 0 -0.25,3.26 v 9.11 a 19,19 0 0 0 0.39,3.68 18.76,18.76 0 0 0 0.72,2.76 4.93,4.93 0 0 0 1.5,1.75 5.72,5.72 0 0 0 2.22,1.21 c 0.69,0.17 1.84,0.36 3.46,0.57 a 33.93,33.93 0 0 0 4.54,0.33 h 6.19 q 10.22,0 13.62,-0.29 a 13.27,13.27 0 0 0 5.32,-1.36 5.71,5.71 0 0 0 2.72,-3.93 47,47 0 0 0 0.72,-10 v -4.11 a 27,27 0 0 0 -0.22,-3.18 c -0.14,-1.24 -0.25,-2.1 -0.32,-2.58 a 5.1,5.1 0 0 0 -0.86,-1.85 6.06,6.06 0 0 0 -1.18,-1.47 9.56,9.56 0 0 0 -2,-0.89 8.47,8.47 0 0 0 -2.54,-0.61 c -0.67,0 -1.85,-0.1 -3.54,-0.22 C 488.4,495.99 487,496 485.8,496 Z"
         id="path1698"
         style="fill:#94d82d;fill-opacity:1" /><path
         class="cls-2"
         d="m 536.24,526.19 h 30.17 c 3,-0.15 4.55,1.19 4.64,4 v 0.93 c -0.09,2.81 -1.64,4.15 -4.64,4 h -36.54 a 3.93,3.93 0 0 1 -4.64,-4.64 v -38.4 c -0.1,-3.09 1.36,-4.64 4.36,-4.64 h 2.29 q 4.5,0 4.36,4.64 z"
         id="path1700"
         style="fill:#94d82d;fill-opacity:1" /><path
         class="cls-2"
         d="m 619.17,486.94 a 70.06,70.06 0 0 1 13.94,1 13.07,13.07 0 0 1 7,3.72 q 2.85,3.21 3.5,10.08 0.28,2.92 0.29,10.08 0,8.94 -1,13.12 a 12.71,12.71 0 0 1 -3.75,6.61 q -3.64,3.21 -11.59,3.72 -3.93,0.35 -20.51,0.35 a 109.7,109.7 0 0 1 -13.12,-0.57 21.56,21.56 0 0 1 -7.19,-2.07 10.57,10.57 0 0 1 -5,-6.33 q -1.39,-4.32 -1.39,-13.83 0,-10.8 0.64,-14.23 1.71,-9.51 12.58,-10.94 5.36,-0.7 25.6,-0.71 z m -6.79,9 h -5.65 c -1.24,0 -2.72,0.06 -4.43,0.17 l -3.61,0.25 a 9.78,9.78 0 0 0 -2.58,0.65 9.56,9.56 0 0 0 -2,0.89 7.25,7.25 0 0 0 -1.22,1.47 4.44,4.44 0 0 0 -0.86,1.89 c 0,0.5 -0.15,1.4 -0.32,2.68 a 25.45,25.45 0 0 0 -0.25,3.26 v 9.11 a 19,19 0 0 0 0.39,3.68 17.55,17.55 0 0 0 0.72,2.76 4.93,4.93 0 0 0 1.5,1.75 5.72,5.72 0 0 0 2.22,1.21 c 0.69,0.17 1.84,0.36 3.46,0.57 a 33.93,33.93 0 0 0 4.54,0.33 h 6.19 q 10.22,0 13.62,-0.29 a 13.27,13.27 0 0 0 5.32,-1.36 5.71,5.71 0 0 0 2.72,-3.93 47,47 0 0 0 0.72,-10 v -4.11 a 29.3,29.3 0 0 0 -0.22,-3.18 c -0.14,-1.24 -0.25,-2.1 -0.32,-2.58 a 5.1,5.1 0 0 0 -0.86,-1.85 6.06,6.06 0 0 0 -1.18,-1.47 9.56,9.56 0 0 0 -2,-0.89 8.47,8.47 0 0 0 -2.54,-0.61 c -0.67,0 -1.85,-0.1 -3.54,-0.22 -1.69,-0.12 -3.15,-0.17 -4.36,-0.17 z"
         id="path1702"
         style="fill:#94d82d;fill-opacity:1" /><path
         class="cls-2"
         d="m 706.61,516.82 h -17.38 a 5,5 0 0 1 -3.25,-1 3.27,3.27 0 0 1 -1.18,-2.68 3.18,3.18 0 0 1 1.18,-2.61 5,5 0 0 1 3.25,-1 h 23.45 a 4.6,4.6 0 0 1 3.51,1 4,4 0 0 1 1.14,3.25 v 0.86 a 74.54,74.54 0 0 1 -0.43,9.65 15.29,15.29 0 0 1 -1.79,5.36 q -2,3.72 -7.43,5.08 -3.15,0.78 -20.95,0.78 -17.8,0 -21.88,-1.51 a 12.56,12.56 0 0 1 -5.32,-3.54 12.78,12.78 0 0 1 -2.61,-6 69,69 0 0 1 -0.79,-12.65 78.44,78.44 0 0 1 0.79,-13.45 13.2,13.2 0 0 1 3.07,-6.5 q 3,-3.23 8.58,-3.93 5.29,-0.87 23.67,-0.86 c 7,0 12,0.31 15,0.93 a 11.83,11.83 0 0 1 6.83,3.57 10.57,10.57 0 0 1 2.72,7.22 3.87,3.87 0 0 1 -1.11,2.93 4.17,4.17 0 0 1 -3,1.08 h -2.14 a 4.12,4.12 0 0 1 -4.51,-3.22 4.39,4.39 0 0 0 -2.14,-2.5 11.53,11.53 0 0 0 -4,-1 q -2.4,-0.25 -8.76,-0.25 -13.08,0 -16.8,0.43 -3.72,0.43 -5.08,2.07 -2,2.22 -2,12.23 a 63.8,63.8 0 0 0 0.54,10 7.12,7.12 0 0 0 2,4.26 8.55,8.55 0 0 0 4.82,1.82 q 3.25,0.39 13,0.39 9.75,0 12.51,-0.35 a 7.44,7.44 0 0 0 4.29,-1.79 c 1.52,-1.48 2.29,-3.84 2.29,-7.08 a 6.76,6.76 0 0 0 -0.09,-0.99 z"
         id="path1704"
         style="fill:#94d82d;fill-opacity:1" /><path
         class="cls-2"
         d="m 756.87,508.46 15.58,-17.59 a 10.07,10.07 0 0 1 3.22,-2.86 8.81,8.81 0 0 1 4.22,-0.57 h 4.57 c 1.67,0 2.5,0.69 2.5,2.07 a 3.17,3.17 0 0 1 -0.85,1.65 l -23.81,26 v 13.3 c 0.09,3.1 -1.36,4.64 -4.36,4.64 h -2.29 c -3,0 -4.46,-1.54 -4.36,-4.64 v -13.3 l -24,-26 a 2.69,2.69 0 0 1 -0.86,-1.72 c 0,-1.33 0.83,-2 2.5,-2 h 4.79 a 8.84,8.84 0 0 1 4.22,0.57 10.07,10.07 0 0 1 3.22,2.86 z"
         id="path1706"
         style="fill:#94d82d;fill-opacity:1" /><path
         class="cls-2"
         d="m 837.15,523.33 20.16,-32.39 a 7.18,7.18 0 0 1 2.54,-2.86 6.8,6.8 0 0 1 3.76,-0.64 h 8.07 a 3.93,3.93 0 0 1 4.65,4.64 v 38.4 c 0.1,3.1 -1.36,4.64 -4.36,4.64 h -2.07 c -3,0 -4.44,-1.54 -4.29,-4.64 l 0.36,-34.61 -22.53,35.75 a 6,6 0 0 1 -5.57,3.5 H 836 a 6.07,6.07 0 0 1 -5.58,-3.5 l -22.3,-35.75 0.21,34.61 c 0.14,3.1 -1.29,4.64 -4.29,4.64 H 802 c -3,0 -4.39,-1.54 -4.29,-4.64 v -38.4 a 3.93,3.93 0 0 1 4.65,-4.64 h 8.29 a 6.78,6.78 0 0 1 3.75,0.64 7.11,7.11 0 0 1 2.54,2.86 z"
         id="path1708"
         style="fill:#94d82d;fill-opacity:1" /></g></g></svg>
